<svg data-v-70b83f88="" version="1.0" xmlns="http://www.w3.org/2000/svg" xmlns:xlink="http://www.w3.org/1999/xlink" width="100%" height="100%" viewBox="70.000000 100.000000 270.000000 150.000000" preserveAspectRatio="xMidYMid meet" color-interpolation-filters="sRGB" style="margin: auto;"> <rect data-v-70b83f88="" x="0" y="0" width="100%" height="100%" fill="#feffff" fill-opacity="1" class="background"></rect> <rect data-v-70b83f88="" x="0" y="0" width="100%" height="100%" fill="url(#watermark)" fill-opacity="1" class="watermarklayer"></rect> <g data-v-70b83f88="" fill="#333" class="iconlinesvg-g iconlinesvg" transform="translate(79.34150695800781,107.29429817199707)"><g class="tp-name"><g transform="translate(0, 2.4169844706329204)"><g><g class="imagesvg"><g><rect fill="#333" fill-opacity="0" stroke-width="2" x="0" y="0" width="30.577876918915585" height="30.581852559748352" class="image-rect"></rect> <svg x="0" y="0" width="30.577876918915585" height="30.581852559748352" filtersec="colorsb8483477553" class="image-svg-svg primary" style="overflow: visible;"><svg xmlns="http://www.w3.org/2000/svg" viewBox="-0.019672099500894547 -0.006036281585693359 178.1875 178.2100372314453"><path d="M50.24 59.43h39.84c12.64 0 24.51 9.39 27.55 21.64 1.85 7.47 1.85 7.47-5.9 7.47h-9.26c-1.83 0-3-.47-3.63-2.5-1.41-4.55-4.72-6.83-9.49-6.84H23.58c-2 0-3.55.11-3.7 2.84-.79 14.27 1.4 27.86 8.5 40.45 9.4 16.66 23.29 27.67 41.53 33.3a65.17 65.17 0 0 0 20 2.6c15.85-.14 31.71 0 47.56 0h2.47c.82 0 2-.07 2.36 1s-.62 1.68-1.36 2.2a89.29 89.29 0 0 1-22.09 11.49 88.05 88.05 0 0 1-79.41-10.32c-17.78-12.2-29.82-28.61-35.84-49.39A86.5 86.5 0 0 1 .19 82.59a95.57 95.57 0 0 1 3.92-20.16c.7-2.32 2.38-3 4.75-3 13.79.07 27.58 0 41.38 0z" fill="#000000"></path><path d="M129.02 118.21H90.1c-15.16 0-27-10.16-29.58-25-.47-2.76.51-3.55 3-3.52 4 .06 8 .08 12 0a3.72 3.72 0 0 1 4 2.55c2 4.76 5.52 7 10.88 6.91 10.39-.1 20.79.6 31.17.31 10.59-.3 21.15 0 31.72.07 4.94 0 5.19-.2 5.57-5.07 1.63-20.78-4.82-38.77-19.19-53.77-14-14.57-31.21-21.58-51.42-21.43-15.76.11-31.51 0-47.27 0h-2.16c-.72 0-1.75 0-2-1s.51-1.53 1.19-2a105.65 105.65 0 0 1 14.73-8.41c20.53-8.94 41.65-10.32 63-3.78a86.28 86.28 0 0 1 33.44 19.36 87.84 87.84 0 0 1 28.62 73.24c-.48 6-1.9 11.77-3.22 17.59-.73 3.2-2.4 4-5.44 4-13.34-.11-26.73-.05-40.12-.05z" fill="#00cdd1"></path><path d="M119.18 148.43c-9.27 0-18.53-.08-27.8 0-14.06.15-26.87-3.78-37.94-12.36a58.35 58.35 0 0 1-21.37-31.64c-1-3.61-1.13-7.3-2-10.89-.76-3.09.32-4.32 3.39-4.39 4.32-.08 8.64 0 13 0 2 0 2.93.75 3.2 2.85 2.16 17.22 11.35 29 27.71 34.88a28 28 0 0 0 9.62 1.84c25.33-.07 50.66 0 76 0a26.51 26.51 0 0 1 3.09.08c1.94.23 2.54 1.4 1.6 3a95.42 95.42 0 0 1-10.8 15.36c-1.24 1.43-2.94 1.3-4.59 1.3h-33.11z" fill="#000000"></path><path d="M58.97 29.84c10 0 20-.21 30 0 24.52.63 42.47 12.06 53.75 33.74 3.39 6.52 4.84 13.74 5.59 21.05.27 2.54-.66 3.9-3.43 3.84-3.91-.1-7.82-.06-11.73 0-2.51 0-3.66-1.06-3.93-3.64-1.54-14.31-9-24.79-21.47-31.54a36.73 36.73 0 0 0-17.79-4.37c-24.7.08-49.41 0-74.11 0h-2.78c-2 0-2.28-.94-1.45-2.57A76.23 76.23 0 0 1 21.79 31.3c1.21-1.42 2.81-1.52 4.5-1.52z" fill="#00cdd1"></path></svg></svg> <!----></g></g></g></g><g transform="translate(34, 0)"><g data-gra="path-name" fill="#333" transform="scale(1)"><path d="M3.43 0.18Q2.70 0.18 2.28-0.27Q1.86-0.73 1.86-1.50L1.86-1.50Q1.86-2.04 2.23-2.52L2.23-2.52L7.89-9.20L2.23-16.10Q1.83-16.61 1.83-17.16L1.83-17.16Q1.83-17.89 2.30-18.35Q2.77-18.80 3.47-18.80L3.47-18.80Q4.34-18.80 4.78-18.18L4.78-18.18L9.89-11.87L14.97-18.18Q15.41-18.80 16.25-18.80L16.25-18.80Q16.98-18.80 17.45-18.35Q17.93-17.89 17.93-17.23L17.93-17.23Q17.93-16.69 17.56-16.21L17.56-16.21L11.79-9.42L17.49-2.56Q17.89-2.12 17.89-1.50L17.89-1.50Q17.89-0.80 17.45-0.31Q17.01 0.18 16.21 0.18L16.21 0.18Q15.41 0.18 14.93-0.47L14.93-0.47L9.75-6.68L4.86-0.55Q4.31 0.18 3.43 0.18L3.43 0.18Z" transform="translate(-1.8255578093306288, 26.835699797160242)"></path></g></g><g transform="translate(54, 0)"><g data-gra="path-name" fill="#333" transform="scale(1)"><path d="M4.53 8.58Q3.83 8.58 3.36 8.09Q2.88 7.59 2.88 6.90L2.88 6.90L2.88-17.16Q2.88-17.85 3.36-18.33Q3.83-18.80 4.53-18.80L4.53-18.80Q5.22-18.80 5.71-18.33Q6.21-17.85 6.21-17.16L6.21-17.16L6.21-16.21Q8.87-18.99 12.45-18.99L12.45-18.99Q14.71-18.99 16.74-17.84Q18.77-16.69 20.03-14.48Q21.29-12.27 21.29-9.31L21.29-9.31Q21.29-6.35 20.03-4.14Q18.77-1.94 16.74-0.78Q14.71 0.37 12.45 0.37L12.45 0.37Q8.87 0.37 6.21-2.41L6.21-2.41L6.21 6.90Q6.21 7.63 5.73 8.11Q5.26 8.58 4.53 8.58L4.53 8.58ZM11.98-2.74Q14.68-2.74 16.32-4.45Q17.96-6.17 17.96-9.31L17.96-9.31Q17.96-12.45 16.32-14.17Q14.68-15.88 11.98-15.88L11.98-15.88Q10.30-15.88 8.82-15.13Q7.34-14.39 6.21-13.14L6.21-13.14L6.21-5.48Q7.34-4.24 8.82-3.49Q10.30-2.74 11.98-2.74L11.98-2.74Z" transform="translate(-2.8843813387423936, 26.835699797160242)"></path></g></g><g transform="translate(76, 0)"><g data-gra="path-name" fill="#333" transform="scale(1)"><path d="M4.45-22.42Q3.69-22.42 3.14-22.97Q2.59-23.51 2.59-24.28L2.59-24.28L2.59-24.43Q2.59-25.19 3.14-25.74Q3.69-26.29 4.45-26.29L4.45-26.29L4.67-26.29Q5.44-26.29 5.99-25.74Q6.54-25.19 6.54-24.43L6.54-24.43L6.54-24.28Q6.54-23.51 5.99-22.97Q5.44-22.42 4.67-22.42L4.67-22.42L4.45-22.42ZM4.53 0.18Q3.83 0.18 3.36-0.29Q2.88-0.77 2.88-1.46L2.88-1.46L2.88-17.12Q2.88-17.82 3.36-18.31Q3.83-18.80 4.53-18.80L4.53-18.80Q5.26-18.80 5.73-18.33Q6.21-17.85 6.21-17.12L6.21-17.12L6.21-1.46Q6.21-0.77 5.71-0.29Q5.22 0.18 4.53 0.18L4.53 0.18Z" transform="translate(-2.5922920892494927, 26.835699797160242)"></path></g></g><g transform="translate(83, 0)"><g data-gra="path-name" fill="#333" transform="scale(1)"><path d="M4.53 0.18Q3.83 0.18 3.36-0.29Q2.88-0.77 2.88-1.46L2.88-1.46L2.88-17.12Q2.88-17.82 3.36-18.31Q3.83-18.80 4.53-18.80L4.53-18.80Q5.22-18.80 5.71-18.31Q6.21-17.82 6.21-17.12L6.21-17.12L6.21-15.55Q8.76-18.99 11.94-18.99L11.94-18.99L12.12-18.99Q12.82-18.99 13.27-18.51Q13.73-18.04 13.73-17.34L13.73-17.34Q13.73-16.65 13.25-16.21Q12.78-15.77 12.05-15.77L12.05-15.77L11.87-15.77Q10.11-15.77 8.65-14.91Q7.19-14.06 6.21-12.56L6.21-12.56L6.21-1.46Q6.21-0.77 5.71-0.29Q5.22 0.18 4.53 0.18L4.53 0.18Z" transform="translate(-2.8843813387423936, 26.835699797160242)"></path></g></g><g transform="translate(97, 0)"><g data-gra="path-name" fill="#333" transform="scale(1)"><path d="M7.63 0.37Q6.02 0.37 4.66-0.29Q3.29-0.95 2.48-2.21Q1.68-3.47 1.68-5.11L1.68-5.11Q1.68-7.81 3.82-9.42Q5.95-11.03 10.08-11.03L10.08-11.03L14.49-11.03L14.49-11.32Q14.49-13.73 13.31-14.79Q12.12-15.85 9.60-15.85L9.60-15.85Q8.22-15.85 7.14-15.63Q6.06-15.41 4.75-14.97L4.75-14.97Q4.45-14.90 4.27-14.90L4.27-14.90Q3.72-14.90 3.32-15.30Q2.92-15.70 2.92-16.28L2.92-16.28Q2.92-17.27 3.87-17.67L3.87-17.67Q6.97-18.99 10.19-18.99L10.19-18.99Q12.71-18.99 14.44-17.96Q16.17-16.94 17.00-15.32Q17.82-13.69 17.82-11.79L17.82-11.79L17.82-1.46Q17.82-0.77 17.32-0.29Q16.83 0.18 16.14 0.18L16.14 0.18Q15.44 0.18 14.97-0.29Q14.49-0.77 14.49-1.46L14.49-1.46L14.49-2.41Q11.79 0.37 7.63 0.37L7.63 0.37ZM8.87-2.56Q10.48-2.56 11.98-3.34Q13.47-4.13 14.49-5.29L14.49-5.29L14.49-8.36L10.52-8.36Q5.00-8.36 5.00-5.48L5.00-5.48Q5.00-4.16 5.90-3.36Q6.79-2.56 8.87-2.56L8.87-2.56Z" transform="translate(-1.6795131845841789, 26.835699797160242)"></path></g></g><g transform="translate(117, 0)"><g data-gra="path-name" fill="#333" transform="scale(1)"><path d="M12.45 0.37Q8.87 0.37 6.21-2.41L6.21-2.41L6.21-1.46Q6.21-0.77 5.71-0.29Q5.22 0.18 4.53 0.18L4.53 0.18Q3.83 0.18 3.36-0.29Q2.88-0.77 2.88-1.46L2.88-1.46L2.88-25.16Q2.88-25.85 3.36-26.34Q3.83-26.84 4.53-26.84L4.53-26.84Q5.26-26.84 5.73-26.36Q6.21-25.89 6.21-25.16L6.21-25.16L6.21-16.21Q8.87-18.99 12.45-18.99L12.45-18.99Q14.71-18.99 16.74-17.84Q18.77-16.69 20.03-14.48Q21.29-12.27 21.29-9.31L21.29-9.31Q21.29-6.35 20.03-4.14Q18.77-1.94 16.74-0.78Q14.71 0.37 12.45 0.37L12.45 0.37ZM11.98-2.74Q14.68-2.74 16.32-4.45Q17.96-6.17 17.96-9.31L17.96-9.31Q17.96-12.45 16.32-14.17Q14.68-15.88 11.98-15.88L11.98-15.88Q10.30-15.88 8.82-15.13Q7.34-14.39 6.21-13.14L6.21-13.14L6.21-5.48Q7.34-4.24 8.82-3.49Q10.30-2.74 11.98-2.74L11.98-2.74Z" transform="translate(-2.8843813387423936, 26.835699797160242)"></path></g></g><g transform="translate(139, 0)"><g data-gra="path-name" fill="#333" transform="scale(1)"><path d="M4.53 0.18Q3.83 0.18 3.36-0.29Q2.88-0.77 2.88-1.46L2.88-1.46L2.88-25.16Q2.88-25.85 3.36-26.34Q3.83-26.84 4.53-26.84L4.53-26.84Q5.26-26.84 5.73-26.36Q6.21-25.89 6.21-25.16L6.21-25.16L6.21-1.46Q6.21-0.77 5.71-0.29Q5.22 0.18 4.53 0.18L4.53 0.18Z" transform="translate(-2.8843813387423936, 26.835699797160242)"></path></g></g><g transform="translate(146, 0)"><g data-gra="path-name" fill="#333" transform="scale(1)"><path d="M11.21 0.37Q6.75 0.37 4.25-2.17Q1.75-4.71 1.75-9.31L1.75-9.31Q1.75-11.90 2.70-14.09Q3.65-16.28 5.62-17.63Q7.59-18.99 10.48-18.99L10.48-18.99Q13.18-18.99 15.15-17.73Q17.12-16.47 18.15-14.37Q19.17-12.27 19.17-9.78L19.17-9.78Q19.17-9.09 18.71-8.62Q18.26-8.14 17.49-8.14L17.49-8.14L5.11-8.14Q5.40-5.59 7.01-4.16Q8.62-2.74 11.50-2.74L11.50-2.74Q13.03-2.74 14.18-3.03Q15.33-3.32 16.43-3.87L16.43-3.87Q16.72-4.02 17.09-4.02L17.09-4.02Q17.67-4.02 18.11-3.61Q18.55-3.21 18.55-2.59L18.55-2.59Q18.55-1.79 17.60-1.24L17.60-1.24Q16.17-0.44 14.79-0.04Q13.40 0.37 11.21 0.37L11.21 0.37ZM5.11-10.84L15.88-10.84Q15.77-12.63 14.95-13.84Q14.13-15.04 12.92-15.61Q11.72-16.17 10.48-16.17L10.48-16.17Q9.24-16.17 8.03-15.61Q6.83-15.04 6.02-13.84Q5.22-12.63 5.11-10.84L5.11-10.84Z" transform="translate(-1.752535496957404, 26.835699797160242)"></path></g></g><g transform="translate(167, 0)"><g data-gra="path-name" fill="#333" transform="scale(1)"><path d="M8.91 0.37Q5.26 0.37 2.26-1.28L2.26-1.28Q1.64-1.72 1.64-2.48L1.64-2.48Q1.64-3.07 2.04-3.51Q2.45-3.94 3.07-3.94L3.07-3.94Q3.40-3.94 3.72-3.80L3.72-3.80Q4.89-3.29 6.06-2.99Q7.23-2.70 8.69-2.70L8.69-2.70Q12.74-2.70 12.74-5.29L12.74-5.29Q12.74-6.13 11.81-6.57Q10.88-7.01 8.76-7.56L8.76-7.56Q6.61-8.07 5.20-8.62Q3.80-9.16 2.79-10.28Q1.79-11.39 1.79-13.22L1.79-13.22Q1.79-15.77 3.63-17.38Q5.48-18.99 8.91-18.99L8.91-18.99Q11.72-18.99 14.20-18.07L14.20-18.07Q14.71-17.93 14.99-17.53Q15.26-17.12 15.26-16.69L15.26-16.69Q15.26-16.10 14.84-15.66Q14.42-15.23 13.80-15.23L13.80-15.23Q13.62-15.23 13.33-15.30L13.33-15.30Q11.21-15.96 9.16-15.96L9.16-15.96Q7.19-15.96 6.08-15.24Q4.97-14.53 4.97-13.40L4.97-13.40Q4.97-12.30 5.99-11.79Q7.01-11.28 9.16-10.81L9.16-10.81Q11.32-10.26 12.67-9.73Q14.02-9.20 14.99-8.07Q15.96-6.94 15.96-5.04L15.96-5.04Q15.96-2.70 14.11-1.17Q12.27 0.37 8.91 0.37L8.91 0.37Z" transform="translate(-1.643002028397566, 26.835699797160242)"></path></g></g></g> <!----></g><defs v-gra="od"></defs></svg>